# Blender v2.79 (sub 0) OBJ File: ''
# www.blender.org
mtllib pente.mtl
o Cube.004
v -0.500000 -0.500000 -0.500000
v 0.500000 -0.500000 -0.500000
v 0.500000 -0.500000 0.500000
v -0.500000 -0.500000 0.500000
v 0.500000 0.500000 0.500000
v -0.500000 0.500000 0.500000
vn -0.0000 -1.0000 0.0000
vn 1.0000 0.0000 -0.0000
vn -1.0000 0.0000 0.0000
vn 0.0000 0.7071 -0.7071
vn 0.0000 -0.0000 1.0000
usemtl Material.002
s 1
f 1//1 2//1 3//1 4//1
f 3//2 2//2 5//2
f 4//3 6//3 1//3
f 1//4 6//4 5//4 2//4
f 3//5 5//5 6//5 4//5
